<svg xmlns="http://www.w3.org/2000/svg" viewBox="0 0 320 320" width="320" height="320" role="img" aria-label="book">
  <defs>
    <radialGradient id="sky" cx="50%" cy="0%" r="120%">
      <stop offset="0%" stop-color="#2d1b6b"/><stop offset="45%" stop-color="#1a1040"/><stop offset="100%" stop-color="#0d2647"/>
    </radialGradient>
    <radialGradient id="glow" cx="50%" cy="50%" r="50%">
      <stop offset="0%" stop-color="#F2C75C" stop-opacity=".30"/><stop offset="100%" stop-color="#F2C75C" stop-opacity="0"/>
    </radialGradient>
    <linearGradient id="frame" x1="0" y1="0" x2="0" y2="1">
      <stop offset="0%" stop-color="#F2C75C"/><stop offset="100%" stop-color="#C9942F"/>
    </linearGradient>
    <clipPath id="card"><rect x="6" y="6" width="308" height="308" rx="30"/></clipPath>
  </defs>
  <g clip-path="url(#card)">
    <rect x="6" y="6" width="308" height="308" fill="url(#sky)"/>
    <circle cx="38" cy="44" r="2.0" fill="#fff" opacity="0.30"/><circle cx="96" cy="28" r="1.3" fill="#fff" opacity="0.45"/><circle cx="150" cy="52" r="1.0" fill="#fff" opacity="0.30"/><circle cx="232" cy="36" r="1.8" fill="#fff" opacity="0.70"/><circle cx="284" cy="62" r="1.2" fill="#fff" opacity="0.40"/><circle cx="28" cy="120" r="1.1" fill="#fff" opacity="0.35"/><circle cx="296" cy="138" r="1.5" fill="#fff" opacity="0.55"/><circle cx="44" cy="220" r="1.4" fill="#fff" opacity="0.50"/><circle cx="286" cy="232" r="1.1" fill="#fff" opacity="0.35"/><circle cx="70" cy="286" r="1.6" fill="#fff" opacity="0.60"/><circle cx="176" cy="296" r="1.2" fill="#fff" opacity="0.40"/><circle cx="256" cy="284" r="1.4" fill="#fff" opacity="0.50"/><circle cx="120" cy="268" r="1.0" fill="#fff" opacity="0.30"/><circle cx="204" cy="40" r="1.0" fill="#fff" opacity="0.30"/>
    <ellipse cx="160" cy="164" rx="118" ry="104" fill="url(#glow)"/>
  </g>
  <rect x="6" y="6" width="308" height="308" rx="30" fill="none" stroke="url(#frame)" stroke-width="5"/>
  <g stroke="#0c2247" stroke-width="6" stroke-linejoin="round" stroke-linecap="round" filter="drop-shadow(0 0 2.5px rgba(251,239,208,.65)) drop-shadow(0 7px 10px rgba(0,0,0,.45))">

    <path d="M160 106 C138 92 100 90 74 99 L74 224 C100 215 138 217 160 231 Z" fill="#4d7cfe"/>
    <path d="M160 106 C182 92 220 90 246 99 L246 224 C220 215 182 217 160 231 Z" fill="#ff6b6b"/>
    <path d="M160 106 L160 231" fill="none"/>
    <g stroke-width="4" stroke="#ffffff" opacity=".85" fill="none">
      <path d="M92 124 C112 118 132 119 146 126"/><path d="M92 146 C112 140 132 141 146 148"/><path d="M92 168 C112 162 132 163 146 170"/>
      <path d="M174 126 C188 119 208 118 228 124"/><path d="M174 148 C188 141 208 140 228 146"/><path d="M174 170 C188 163 208 162 228 168"/>
    </g>
  </g>
</svg>
