<svg xmlns="http://www.w3.org/2000/svg" viewBox="0 0 320 320" width="320" height="320" role="img" aria-label="board">
  <defs>
    <radialGradient id="sky" cx="50%" cy="0%" r="120%">
      <stop offset="0%" stop-color="#2d1b6b"/><stop offset="45%" stop-color="#1a1040"/><stop offset="100%" stop-color="#0d2647"/>
    </radialGradient>
    <radialGradient id="glow" cx="50%" cy="50%" r="50%">
      <stop offset="0%" stop-color="#F2C75C" stop-opacity=".30"/><stop offset="100%" stop-color="#F2C75C" stop-opacity="0"/>
    </radialGradient>
    <linearGradient id="frame" x1="0" y1="0" x2="0" y2="1">
      <stop offset="0%" stop-color="#F2C75C"/><stop offset="100%" stop-color="#C9942F"/>
    </linearGradient>
    <clipPath id="card"><rect x="6" y="6" width="308" height="308" rx="30"/></clipPath>
  </defs>
  <g clip-path="url(#card)">
    <rect x="6" y="6" width="308" height="308" fill="url(#sky)"/>
    <circle cx="38" cy="44" r="2.0" fill="#fff" opacity="0.30"/><circle cx="96" cy="28" r="1.3" fill="#fff" opacity="0.45"/><circle cx="150" cy="52" r="1.0" fill="#fff" opacity="0.30"/><circle cx="232" cy="36" r="1.8" fill="#fff" opacity="0.70"/><circle cx="284" cy="62" r="1.2" fill="#fff" opacity="0.40"/><circle cx="28" cy="120" r="1.1" fill="#fff" opacity="0.35"/><circle cx="296" cy="138" r="1.5" fill="#fff" opacity="0.55"/><circle cx="44" cy="220" r="1.4" fill="#fff" opacity="0.50"/><circle cx="286" cy="232" r="1.1" fill="#fff" opacity="0.35"/><circle cx="70" cy="286" r="1.6" fill="#fff" opacity="0.60"/><circle cx="176" cy="296" r="1.2" fill="#fff" opacity="0.40"/><circle cx="256" cy="284" r="1.4" fill="#fff" opacity="0.50"/><circle cx="120" cy="268" r="1.0" fill="#fff" opacity="0.30"/><circle cx="204" cy="40" r="1.0" fill="#fff" opacity="0.30"/>
    <ellipse cx="160" cy="164" rx="118" ry="104" fill="url(#glow)"/>
  </g>
  <rect x="6" y="6" width="308" height="308" rx="30" fill="none" stroke="url(#frame)" stroke-width="5"/>
  <g stroke="#0c2247" stroke-width="6" stroke-linejoin="round" stroke-linecap="round" filter="drop-shadow(0 0 2.5px rgba(251,239,208,.65)) drop-shadow(0 7px 10px rgba(0,0,0,.45))">

    <rect x="62" y="94" width="196" height="136" rx="14" fill="#c97b3c"/>
    <rect x="78" y="110" width="164" height="86" rx="7" fill="#2f7d55"/>
    <rect x="72" y="208" width="176" height="18" rx="7" fill="#e0a666"/>
    <rect x="196" y="214" width="30" height="7" rx="3" fill="#FBEFD0" stroke="none"/>
    <path d="M100 138 h46 M100 160 h76" stroke="#ffffff" stroke-width="4" opacity=".7"/>
  </g>
</svg>
